<?xml version="1.0" encoding="UTF-8"?>
<!DOCTYPE svg PUBLIC "-//W3C//DTD SVG 1.1//EN" "http://www.w3.org/Graphics/SVG/1.1/DTD/svg11.dtd">
<!-- Creator: CorelDRAW X7 -->
<svg xmlns="http://www.w3.org/2000/svg" xml:space="preserve" width="980px" height="650px" version="1.1" style="shape-rendering:geometricPrecision; text-rendering:geometricPrecision; image-rendering:optimizeQuality; fill-rule:evenodd; clip-rule:evenodd"
viewBox="0 0 980 650"
 xmlns:xlink="http://www.w3.org/1999/xlink">
 <defs>
  <style type="text/css">
   <![CDATA[
    .str5 {stroke:#D2D3D5;stroke-width:1.0004}
    .str6 {stroke:#B0B0B0;stroke-width:1.0004}
    .str18 {stroke:#71CDDD;stroke-width:1.0004}
    .str20 {stroke:#19C2FF;stroke-width:1.0004}
    .str12 {stroke:#248D62;stroke-width:1.0004}
    .str4 {stroke:#968470;stroke-width:1.0004}
    .str11 {stroke:#9AD0E3;stroke-width:1.0004}
    .str19 {stroke:#BAEDFF;stroke-width:1.0004}
    .str17 {stroke:#C7C7C8;stroke-width:1.0004}
    .str10 {stroke:#D4B679;stroke-width:1.0004}
    .str16 {stroke:#D5D5D5;stroke-width:1.0004}
    .str8 {stroke:#D6C8A9;stroke-width:1.0004}
    .str3 {stroke:#DFE0E0;stroke-width:1.0004}
    .str2 {stroke:#EAEBEB;stroke-width:1.0004}
    .str1 {stroke:#F2F2F3;stroke-width:1.0004}
    .str7 {stroke:#FADFA8;stroke-width:1.0004}
    .str9 {stroke:#FAE8C3;stroke-width:1.0004}
    .str21 {stroke:#FFD4B8;stroke-width:1.0004}
    .str13 {stroke:#FFFCEB;stroke-width:1.0004}
    .str22 {stroke:#FEFEFE;stroke-width:4.99961}
    .str0 {stroke:#373435;stroke-width:2.08347}
    .str14 {stroke:#399169;stroke-width:2.08347}
    .str15 {stroke:#248D62;stroke-width:2.08347}
    .fil0 {fill:none}
    .fil1 {fill:#FEFEFE}
    .fil6 {fill:#D2D3D5}
    .fil13 {fill:#FFFBD8}
    .fil2 {fill:#F2F3F3}
    .fil3 {fill:#EBECEC}
    .fil4 {fill:#E0E1E0}
    .fil14 {fill:#D6D6D6}
    .fil15 {fill:#C8C9C9}
    .fil7 {fill:#B0B0B0}
    .fil5 {fill:#998876}
    .fil16 {fill:#71CDDD}
    .fil12 {fill:#399169}
    .fil11 {fill:#9AD0E3}
    .fil17 {fill:#BAEDFF}
    .fil10 {fill:#D4B679}
    .fil8 {fill:#FADFA8}
    .fil9 {fill:#FAE8C3}
    .fil18 {fill:#FFD4B8}
   ]]>
  </style>
 </defs>
 <g id="Layer_x0020_1">
  <metadata id="CorelCorpID_0Corel-Layer"/>
  <path class="fil0 str0" d="M202 233l0 105 474 0 0 -35m0 -34l0 -245 -474 0 0 173"/>
  <polygon class="fil0 str0" points="468,210 519,210 537,207 598,207 598,263 537,263 519,266 468,266 "/>
  <polygon class="fil0 str0" points="471,215 471,261 519,261 536,258 595,258 595,212 538,212 520,215 "/>
  <ellipse class="fil0 str0" cx="523" cy="237" rx="14" ry="19"/>
  <path class="fil1" d="M522 246l0 -8c-2,0 -4,-1 -5,-3 -1,-1 -2,-3 -2,-5 0,-2 1,-3 2,-5 1,-1 3,-2 5,-2l0 -2 3 0 0 2c2,0 3,1 4,2 1,1 2,2 2,4l-4 1c0,-2 -1,-3 -2,-3l0 7c3,1 5,2 6,3 1,1 1,3 1,5 0,2 0,4 -2,5 -1,2 -3,3 -5,3l0 4 -3 0 0 -4c-2,0 -4,-1 -5,-2 -1,-1 -2,-3 -3,-6l5 0c0,1 1,2 1,2 1,1 1,2 2,2zm0 -19c-1,0 -1,1 -2,1 0,1 0,1 0,2 0,1 0,1 0,2 1,0 1,1 2,1l0 -6zm3 19c0,0 1,0 2,-1 0,-1 1,-2 1,-2 0,-1 -1,-2 -1,-3 -1,0 -1,-1 -2,-1l0 7z"/>
  <circle class="fil0 str0" cx="487" cy="238" r="6"/>
  <circle class="fil0 str0" cx="572" cy="237" r="8"/>
  <path class="fil2 str1" d="M202 24l474 0 0 245 17 -1 0 -255c0,-4 -3,-6 -6,-6l-494 0c-4,0 -8,3 -8,8l0 181 17 1 0 -173z"/>
  <path class="fil2 str1" d="M202 338l0 -105 -17 1 0 115c0,3 3,6 6,6l204 0 89 0 203 0c3,0 6,-3 6,-6l0 -46 -17 0 0 35 -474 0z"/>
  <line class="fil0 str0" x1="379" y1="392" x2="500" y2= "392" />
  <polygon class="fil3 str2" points="500,392 379,392 379,402 500,402 "/>
  <path class="fil4 str3" d="M379 392l121 0c-13,-12 -18,-24 -16,-37l-89 0c2,13 -4,25 -16,37z"/>
  <polygon class="fil5 str4" points="379,402 25,402 25,412 953,412 953,402 815,402 745,402 500,402 "/>
  <polygon class="fil6 str5" points="745,318 745,401 815,401 815,372 815,364 815,340 815,331 815,318 "/>
  <path class="fil7 str6" d="M826 352c0,5 -3,10 -7,12l-4 0 0 8 7 0c8,-3 13,-11 13,-20 0,-9 -5,-17 -13,-21l-7 0 0 9 4 0c4,2 7,7 7,12z"/>
  <path class="fil8 str7" d="M379 211l-4 0 0 -9 4 0c2,1 3,3 3,4 0,2 -1,4 -3,5zm8 -5c0,-1 -1,-2 -1,-3 -2,-2 -4,-4 -7,-4l-39 0 -25 4 -113 -6 -17 -1 -43 -2c4,16 4,30 1,42l42 -2 17 -1 110 -4c8,2 17,3 28,3 31,2 61,-7 87,-11 1,-3 4,-4 9,-4 2,0 3,1 3,3 2,-1 3,-2 3,-3 2,-2 2,-5 0,-7 -1,-3 -4,-4 -6,-4l-49 0z"/>
  <path class="fil9 str8" d="M380 212c2,-1 3,-3 3,-6 0,-2 -1,-4 -3,-5l-6 0 0 11 6 0z"/>
  <path class="fil9 str9" d="M436 217c-5,0 -8,1 -9,4 3,0 6,-1 9,-1 1,0 2,0 3,0 0,-2 -1,-3 -3,-3z"/>
  <path class="fil10 str10" d="M574 270l-40 0c-3,0 -5,1 -6,3 -1,1 -1,3 -1,4l-50 0c-2,0 -5,1 -6,3 -2,2 -2,5 0,8 1,1 3,3 5,3 1,-2 2,-3 3,-3 5,0 8,1 9,4 26,4 55,13 86,11 10,0 19,-1 27,-3l75 3 17 0 78 3c-4,-16 -4,-30 1,-42l-79 4 -17 1 -78 4 -24 -3zm-37 11l-4 0c-2,-1 -3,-2 -3,-4 0,-2 1,-3 3,-4l4 0 0 8z"/>
  <path class="fil9 str9" d="M538 282l0 -10 -5 0c-2,1 -3,3 -3,5 0,2 1,4 3,5l5 0z"/>
  <path class="fil9 str9" d="M488 292c-1,-3 -4,-4 -9,-4 -1,0 -2,1 -3,3 1,0 1,0 1,0 4,0 8,1 11,1z"/>
  <path class="fil11 str11" d="M387 206l49 0c2,0 5,1 6,4 2,2 2,5 0,7 0,1 -1,2 -3,3 -1,0 -2,0 -3,0 -3,0 -6,1 -9,1 -26,4 -56,13 -87,11 -11,0 -20,-1 -28,-3l-110 4 0 105 474 0 0 -35 -75 -3c-8,2 -17,3 -27,3 -31,2 -60,-7 -86,-11 -3,0 -7,-1 -11,-1 0,0 0,0 -1,0 -2,0 -4,-2 -5,-3 -2,-3 -2,-6 0,-8 1,-2 4,-3 6,-3l50 0c0,-1 0,-3 1,-4 1,-2 3,-3 6,-3l40 0 24 3 78 -4 0 -245 -474 0 0 173 113 6 25 -4 39 0c3,0 5,2 7,4 0,1 1,2 1,3zm81 60l0 -56 51 0 18 -3 61 0 0 56 -61 0 -18 3 -51 0z"/>
  <path class="fil12 str12" d="M519 210l-51 0 0 56 51 0 18 -3 61 0 0 -56 -61 0 -18 3zm-48 5l49 0 18 -3 57 0 0 46 -59 0 -17 3 -48 0 0 -46z"/>
  <path class="fil12 str12" d="M492 238c0,-3 -2,-6 -5,-6 -3,0 -6,3 -6,6 0,3 3,5 6,5 3,0 5,-2 5,-5z"/>
  <path class="fil12 str12" d="M564 237c0,4 4,8 8,8 5,0 8,-4 8,-8 0,-5 -3,-8 -8,-8 -4,0 -8,3 -8,8z"/>
  <path class="fil12 str12" d="M537 237c0,-11 -6,-19 -14,-19 -8,0 -14,8 -14,19 0,10 6,19 14,19 8,0 14,-9 14,-19zm-12 -3c3,1 5,2 6,3 1,1 1,3 1,5 0,2 0,4 -2,5 -1,2 -3,3 -5,3l0 4 -3 0 0 -4c-2,0 -4,-1 -5,-2 -1,-1 -2,-3 -3,-6l5 0c0,1 1,2 1,2 1,1 1,2 2,2l0 -8c-2,0 -4,-1 -5,-3 -1,-1 -2,-3 -2,-5 0,-2 1,-3 2,-5 1,-1 3,-2 5,-2l0 -2 3 0 0 2c2,0 3,1 4,2 1,1 2,2 2,4l-4 1c0,-2 -1,-3 -2,-3l0 7z"/>
  <path class="fil12 str12" d="M522 233l0 -6c-1,0 -1,1 -2,1 0,1 0,1 0,2 0,1 0,1 0,2 1,0 1,1 2,1z"/>
  <path class="fil12 str12" d="M525 239l0 7c0,0 1,0 2,-1 0,-1 1,-2 1,-2 0,-1 -1,-2 -1,-3 -1,0 -1,-1 -2,-1z"/>
  <path class="fil13 str13" d="M509 237c0,-11 6,-19 14,-19 8,0 14,8 14,19 0,10 -6,19 -14,19 -8,0 -14,-9 -14,-19zm11 -22l-49 0 0 46 48 0 17 -3 59 0 0 -46 -57 0 -18 3zm52 30c-4,0 -8,-4 -8,-8 0,-5 4,-8 8,-8 5,0 8,3 8,8 0,4 -3,8 -8,8zm-85 -13c3,0 5,3 5,6 0,3 -2,5 -5,5 -3,0 -6,-2 -6,-5 0,-3 3,-6 6,-6z"/>
  <ellipse class="fil0 str14" cx="523" cy="237" rx="16" ry="21"/>
  <ellipse class="fil0 str14" cx="572" cy="237" rx="10" ry="11"/>
  <circle class="fil0 str15" cx="487" cy="238" r="9"/>
  <polygon class="fil14 str16" points="323,468 593,468 712,468 733,458 760,412 171,412 198,458 218,468 "/>
  <polyline class="fil0 str0" points="372,511 384,500 533,500 544,511 "/>
  <polyline class="fil0 str0" points="381,511 388,504 529,505 535,511 "/>
  <polygon class="fil15 str17" points="372,511 384,500 533,500 544,511 561,511 571,505 593,468 323,468 345,505 355,511 "/>
  <polygon class="fil16 str18" points="388,504 381,511 535,511 529,505 "/>
  <polygon class="fil17 str19" points="388,504 529,505 535,511 544,511 533,500 384,500 372,511 381,511 "/>
  <path class="fil17 str20" d="M545 542l-165 0c-1,1 -2,3 -2,4 0,2 1,4 2,5l165 0c2,-1 3,-3 3,-5 0,-1 -1,-3 -3,-4z"/>
  <path class="fil17 str20" d="M568 575l-210 0c-2,2 -3,4 -3,6 0,2 1,4 3,6l210 0c2,-1 3,-4 3,-6 0,-2 -1,-4 -3,-6z"/>
  <path class="fil17 str20" d="M587 609l-249 0c-2,2 -3,4 -3,7 0,2 1,5 3,6l249 0c3,-1 4,-4 4,-6 0,-3 -1,-6 -4,-7z"/>
  <g id="_640116336">
   <path class="fil18 str21" d="M438 140l6 8 7 -1c0,-10 -3,-19 -8,-26l-5 19zm-123 1l-11 -14c-3,5 -5,11 -6,17 -3,9 4,16 21,20l-1 -4 -4 -13 1 -6zm78 43l-20 4 -1 4c7,2 17,4 29,5l2 -12 -3 -8 -4 1 -3 6zm-89 -57l11 14 -1 6 4 13 1 4c5,1 10,2 17,3 5,1 11,1 18,2 4,0 7,0 12,0l-10 3c-3,9 3,16 16,20l1 -4 20 -4 3 -6 4 -1 3 8 -2 12c4,0 9,0 13,0 5,1 10,0 14,0 8,-2 13,-5 16,-11 5,-15 8,-27 7,-39l-7 1 -6 -8 5 -19c-5,-8 -14,-15 -25,-20 -2,-1 -5,-2 -8,-3 -7,-2 -16,-4 -26,-6 -4,0 -9,1 -13,1 -15,1 -28,4 -38,8 -14,6 -23,15 -29,26z"/>
   <path class="fil0 str22" d="M298 144c6,-34 35,-51 86,-52m0 0c59,8 79,40 60,94 -4,9 -14,12 -30,11 -43,-1 -63,-9 -58,-25m-58 -28c-6,16 20,24 75,25m-17 3c6,-2 10,-3 10,-3m-33 -68l15 4 6 12 -2 10m-16 40l6 -22 -9 -13 3 -15m2 22l11 -6 18 9 12 -5m-13 -10l12 -15 22 6 6 10m-16 -13l6 -8m-77 57l-5 -17 3 -16m1 29l13 -11 -3 -10m-13 2l-11 -14m50 42l17 -15 15 4 13 -4m-21 2l15 -18 -10 -10 -15 4m-5 -23l-15 -4m23 -12l9 7 11 2m-11 -2l-9 14m47 -13l-1 17 4 12 -6 16 6 15m-3 -23l-17 4 -6 4m23 7l-12 8 -2 10m10 26l6 -13 -5 -9 4 -10m0 17l11 -9 5 1m-39 -67l14 -9m-38 94l4 -13 13 -5 4 -10m50 -43l-5 19 -11 6 2 15m9 -21l6 8 7 -1m-23 50l3 -11 11 -8m-69 10l20 -4 3 -6 11 -2m-7 1l3 8 -2 12"/>
  </g>
 </g>
</svg>
