<?xml version="1.0" encoding="UTF-8"?>
<!DOCTYPE svg PUBLIC "-//W3C//DTD SVG 1.1//EN" "http://www.w3.org/Graphics/SVG/1.1/DTD/svg11.dtd">
<!-- Creator: CorelDRAW X7 -->
<svg xmlns="http://www.w3.org/2000/svg" xml:space="preserve" width="512px" height="512px" version="1.1" style="shape-rendering:geometricPrecision; text-rendering:geometricPrecision; image-rendering:optimizeQuality; fill-rule:evenodd; clip-rule:evenodd"
viewBox="0 0 512 512"
 xmlns:xlink="http://www.w3.org/1999/xlink">
 <defs>
  <style type="text/css">
   <![CDATA[
    .str2 {stroke:#D2D3D5;stroke-width:1.0004}
    .str3 {stroke:#BCBDBD;stroke-width:1.0004}
    .str5 {stroke:#3269B5;stroke-width:1.0004}
    .str4 {stroke:#3A7BD5;stroke-width:1.0004}
    .str0 {stroke:#7BB864;stroke-width:1.0004}
    .str1 {stroke:#FEFEFE;stroke-width:1.0004}
    .fil2 {fill:#FEFEFE}
    .fil3 {fill:#D2D3D5}
    .fil0 {fill:#373435}
    .fil4 {fill:#BCBDBD}
    .fil6 {fill:#3269B5}
    .fil5 {fill:#3A7BD5}
    .fil1 {fill:#7BB864}
   ]]>
  </style>
 </defs>
 <g id="Layer_x0020_1">
  <metadata id="CorelCorpID_0Corel-Layer"/>
  <g>
   <path class="fil0" d="M270 114l-1 -6c2,0 4,-1 6,-2 1,-2 2,-3 3,-4l-17 0c-2,5 -4,9 -7,11 -3,3 -7,4 -11,4 -5,0 -8,-1 -11,-4 -3,-3 -5,-7 -6,-11l-4 0 0 -6 4 0c1,-5 2,-8 5,-11 2,-2 5,-4 10,-5l1 11c-3,0 -5,2 -7,5l16 0c2,-7 4,-11 7,-14 3,-2 7,-3 11,-3 5,0 9,1 12,4 4,3 6,7 7,13l7 0 0 6 -7 0c-1,4 -3,8 -5,11 -2,2 -4,3 -7,4l-6 -3zm-35 -12c1,1 2,3 3,3 1,1 3,2 4,2 2,0 3,-1 4,-1 2,-1 3,-3 3,-4l-14 0zm44 -6c-1,-2 -2,-4 -3,-5 -2,-2 -4,-2 -6,-2 -1,0 -3,0 -4,1 -2,2 -3,3 -3,6l16 0z"/>
  </g>
  <path class="fil1 str0" d="M258 72c32,0 58,13 58,28 0,10 -10,18 -25,23 11,4 21,8 31,11l0 -109 -128 0 0 110c10,-3 21,-7 32,-11 -16,-5 -27,-14 -27,-24 0,-15 26,-28 59,-28z"/>
  <path class="fil2 str1" d="M231 85c2,-2 5,-4 10,-5l1 11c-3,0 -5,2 -7,5l16 0c2,-7 4,-11 7,-14 3,-2 7,-3 11,-3 5,0 9,1 12,4 4,3 6,7 7,13l7 0 0 6 -7 0c-1,4 -3,8 -5,11 -2,2 -4,3 -7,4 5,2 10,4 15,6 15,-5 25,-13 25,-23 0,-15 -26,-28 -58,-28 -33,0 -59,13 -59,28 0,10 11,19 27,24 6,-2 12,-5 17,-7 0,0 0,0 0,0 -5,0 -8,-1 -11,-4 -3,-3 -5,-7 -6,-11l-4 0 0 -6 4 0c1,-5 2,-8 5,-11z"/>
  <path class="fil3 str2" d="M259 123c-77,35 -154,50 -229,46 19,178 95,287 229,327l0 -29c-127,-41 -180,-148 -198,-271 68,0 135,-17 198,-44l0 -29z"/>
  <path class="fil4 str3" d="M259 152c63,27 129,44 198,44 -19,124 -72,230 -198,271l0 29c134,-40 209,-149 228,-327 -75,4 -151,-11 -228,-46l0 29z"/>
  <path class="fil5 str4" d="M259 467l0 -315c-63,27 -130,44 -198,44 18,123 71,230 198,271z"/>
  <path class="fil6 str5" d="M259 152l0 315c126,-41 179,-147 198,-271 -69,0 -135,-17 -198,-44z"/>
 </g>
</svg>
