<?xml version="1.0" encoding="UTF-8"?>
<!DOCTYPE svg PUBLIC "-//W3C//DTD SVG 1.1//EN" "http://www.w3.org/Graphics/SVG/1.1/DTD/svg11.dtd">
<!-- Creator: CorelDRAW X7 -->
<svg xmlns="http://www.w3.org/2000/svg" xml:space="preserve" width="2550px" height="3300px" version="1.1" style="shape-rendering:geometricPrecision; text-rendering:geometricPrecision; image-rendering:optimizeQuality; fill-rule:evenodd; clip-rule:evenodd"
viewBox="0 0 2550 3300"
 xmlns:xlink="http://www.w3.org/1999/xlink">
 <defs>
  <style type="text/css">
   <![CDATA[
    .str0 {stroke:#FEFEFE;stroke-width:9.77008}
    .str1 {stroke:#3A7BD5;stroke-width:1.99961}
    .fil0 {fill:#3A7BD5}
    .fil2 {fill:#4692FC}
    .fil1 {fill:white}
   ]]>
  </style>
 </defs>
 <g id="Layer_x0020_1">
  <metadata id="CorelCorpID_0Corel-Layer"/>
  <g id="_1967529425264">
   <path class="fil0" d="M1346 889l-5 -33c10,0 21,-5 32,-11 5,-11 11,-16 16,-21l-92 0c-11,27 -21,48 -38,60 -15,15 -37,21 -58,21 -28,0 -44,-6 -60,-21 -17,-17 -27,-39 -32,-60l-22 0 0 -32 22 0c5,-28 10,-43 27,-60 10,-11 26,-22 53,-27l5 59c-15,0 -26,11 -37,28l87 0c10,-38 20,-60 37,-76 16,-11 38,-16 60,-16 26,0 48,5 65,21 21,16 31,38 37,71l38 0 0 32 -38 0c-6,21 -16,43 -27,60 -10,10 -22,15 -38,21l-32 -16 0 0 0 0zm-189 -65c5,5 11,16 16,16 6,5 16,11 21,11 12,0 17,-6 22,-6 11,-5 16,-16 16,-21l-75 0 0 0 0 0zm237 -32c-5,-11 -10,-22 -16,-28 -11,-10 -21,-10 -32,-10 -5,0 -17,0 -22,5 -10,11 -16,16 -16,33l86 0 0 0z"/>
  </g>
  <path class="fil0" d="M1281 662c173,0 313,70 313,152 0,53 -54,96 -135,123 60,22 113,43 167,60l0 -588 -690 0 0 593c53,-16 113,-38 173,-60 -87,-27 -146,-75 -146,-128 0,-82 140,-152 318,-152l0 0 0 0z"/>
  <path class="fil1 str0" d="M1136 732c10,-11 26,-22 53,-27l5 59c-15,0 -26,11 -37,28l87 0c10,-38 20,-60 37,-76 16,-11 38,-16 60,-16 26,0 48,5 65,21 21,16 31,38 37,71l38 0 0 32 -38 0c-6,21 -16,43 -27,60 -10,10 -22,15 -38,21 28,10 54,22 81,32 81,-27 135,-70 135,-123 0,-82 -140,-152 -313,-152 -178,0 -318,70 -318,152 0,53 59,101 146,128 32,-10 64,-27 92,-37 0,0 0,0 0,0 -28,0 -44,-6 -60,-21 -17,-17 -27,-39 -32,-60l-22 0 0 -32 22 0c5,-28 10,-43 27,-60l0 0 0 0z"/>
  <path class="fil0" d="M1291 937c-415,189 -830,270 -1235,248 103,960 513,1549 1235,1764l0 -157c-685,-220 -970,-798 -1067,-1461 367,0 728,-92 1067,-237l0 -157 0 0z"/>
  <path class="fil0 str1" d="M1286 2862l0 -1837c-348,157 -718,256 -1094,256 99,717 391,1342 1094,1581l0 0z"/>
  <path class="fil2 str1" d="M1286 1040l0 1806c704,-234 1000,-842 1106,-1554 -385,0 -754,-98 -1106,-252l0 0z"/>
  <path class="fil0" d="M1286 1094c340,145 696,237 1068,237 -102,669 -388,1241 -1068,1462l0 156c723,-215 1128,-804 1230,-1764 -404,22 -814,-59 -1230,-248l0 157 0 0z"/>
 </g>
</svg>
