<?xml version="1.0" encoding="UTF-8"?>
<!DOCTYPE svg PUBLIC "-//W3C//DTD SVG 1.1//EN" "http://www.w3.org/Graphics/SVG/1.1/DTD/svg11.dtd">
<!-- Creator: CorelDRAW X7 -->
<svg xmlns="http://www.w3.org/2000/svg" xml:space="preserve" width="2550px" height="3300px" version="1.1" style="shape-rendering:geometricPrecision; text-rendering:geometricPrecision; image-rendering:optimizeQuality; fill-rule:evenodd; clip-rule:evenodd"
viewBox="0 0 2550 3300"
 xmlns:xlink="http://www.w3.org/1999/xlink">
 <defs>
  <style type="text/css">
   <![CDATA[
    .str2 {stroke:#FEFEFE;stroke-width:9.77008}
    .str1 {stroke:#285491;stroke-width:6.24921}
    .str0 {stroke:#373435;stroke-width:15.6236}
    .fil1 {fill:none}
    .fil4 {fill:#285491}
    .fil0 {fill:#3A7BD5}
    .fil2 {fill:#4794FF}
    .fil3 {fill:#DEDFDF}
    .fil5 {fill:#FEFEFE}
   ]]>
  </style>
 </defs>
 <g id="Layer_x0020_1">
  <metadata id="CorelCorpID_0Corel-Layer"/>
  <path class="fil0" d="M138 924c-35,0 -64,29 -64,64l0 1437c0,35 29,58 64,58l2295 0c35,0 64,-23 64,-58l0 -1437c0,-35 -29,-64 -64,-64 -927,0 -683,0 -2295,0z"/>
  <path class="fil1" d="M2012 1143c221,0 400,179 400,400 0,222 -179,401 -400,401 -221,0 -401,-179 -401,-401 0,-221 180,-400 401,-400z"/>
  <circle class="fil1 str0" cx="2012" cy="1543" r="339"/>
  <circle class="fil1 str0" cx="2012" cy="1543" r="160"/>
  <circle class="fil1 str0" cx="2012" cy="1543" r="65"/>
  <path class="fil2" d="M1611 1543c0,222 180,401 401,401 221,0 400,-179 400,-401 0,-221 -179,-400 -400,-400 -221,0 -401,179 -401,400zm401 339c-187,0 -339,-152 -339,-339 0,-187 152,-339 339,-339 188,0 340,152 340,339 0,187 -152,339 -340,339z"/>
  <path class="fil3" d="M1853 1543c0,88 71,160 159,160 89,0 160,-72 160,-160 0,-88 -71,-160 -160,-160 -88,0 -159,72 -159,160zm224 0c0,36 -29,65 -65,65 -36,0 -64,-29 -64,-65 0,-35 28,-65 64,-65 36,0 65,30 65,65z"/>
  <path class="fil4 str1" d="M2012 1478c-36,0 -64,30 -64,65 0,36 28,65 64,65 36,0 65,-29 65,-65 0,-35 -29,-65 -65,-65z"/>
  <path class="fil4" d="M2012 1204c-187,0 -339,152 -339,339 0,187 152,339 339,339 188,0 340,-152 340,-339 0,-187 -152,-339 -340,-339zm0 179c89,0 160,72 160,160 0,88 -71,160 -160,160 -88,0 -159,-72 -159,-160 0,-88 71,-160 159,-160z"/>
  <path class="fil2" d="M1794 747l0 469c62,-41 138,-65 218,-65 81,0 155,24 218,65l0 -469c-142,-68 -287,-68 -436,0z"/>
  <polygon class="fil0" points="2491,2512 74,2512 74,2587 2491,2587 "/>
  <path class="fil5 str2" d="M1501 1776c0,-133 -105,-238 -239,-238 -133,0 -237,105 -237,238 0,134 104,238 237,238 134,0 239,-104 239,-238z"/>
 </g>
</svg>
