<?xml version="1.0" encoding="UTF-8"?>
<!DOCTYPE svg PUBLIC "-//W3C//DTD SVG 1.1//EN" "http://www.w3.org/Graphics/SVG/1.1/DTD/svg11.dtd">
<!-- Creator: CorelDRAW X7 -->
<svg xmlns="http://www.w3.org/2000/svg" xml:space="preserve" width="512px" height="512px" version="1.1" style="shape-rendering:geometricPrecision; text-rendering:geometricPrecision; image-rendering:optimizeQuality; fill-rule:evenodd; clip-rule:evenodd"
viewBox="0 0 512 512"
 xmlns:xlink="http://www.w3.org/1999/xlink">
 <defs>
  <style type="text/css">
   <![CDATA[
    .str0 {stroke:#8ECDA1;stroke-width:1.0004}
    .str4 {stroke:#4D4D4D;stroke-width:1.0004}
    .str1 {stroke:#232323;stroke-width:1.0004}
    .str3 {stroke:#2E2E2E;stroke-width:1.0004}
    .str2 {stroke:#5E5F5F;stroke-width:1.0004}
    .str5 {stroke:#DDDEDE;stroke-width:1.0004}
    .str6 {stroke:#FEFEFE;stroke-width:1.0004}
    .fil7 {fill:#FEFEFE}
    .fil6 {fill:#DEDFDF}
    .fil0 {fill:#8ECDA1}
    .fil3 {fill:#666666}
    .fil1 {fill:#6A9778}
    .fil5 {fill:#4D4D4D}
    .fil2 {fill:#373838}
    .fil4 {fill:#2E2E2E}
   ]]>
  </style>
 </defs>
 <g id="Layer_x0020_1">
  <metadata id="CorelCorpID_0Corel-Layer"/>
  <path class="fil0 str0" d="M57 130c-6,0 -11,5 -11,11l0 248c0,6 5,10 11,10l396 0c6,0 11,-4 11,-10l0 -248c0,-6 -5,-11 -11,-11 -160,0 -118,0 -396,0z"/>
  <polygon class="fil1 str0" points="463,404 46,404 46,417 463,417 "/>
  <path class="fil2 str1" d="M305 201c10,-21 31,-36 56,-36 34,0 62,28 62,62 0,34 -28,62 -62,62 -34,0 -62,-28 -62,-62 0,-5 1,-11 2,-16 -2,-2 -4,-4 -5,-6 -3,7 -4,14 -4,22 0,38 31,69 69,69 38,0 69,-31 69,-69 0,-26 -14,-48 -35,-60 -10,-6 -22,-9 -34,-9 -13,0 -25,4 -36,10 -11,7 -19,16 -25,27 1,2 3,4 5,6z"/>
  <path class="fil3 str2" d="M361 165c-25,0 -46,15 -56,36 7,7 15,12 26,15 4,-12 16,-21 30,-21 18,0 32,14 32,32 0,18 -14,32 -32,32 -18,0 -32,-14 -32,-32 -11,-3 -20,-9 -28,-16 -1,5 -2,11 -2,16 0,34 28,62 62,62 34,0 62,-28 62,-62 0,-34 -28,-62 -62,-62z"/>
  <path class="fil4 str3" d="M325 168c11,-6 23,-10 36,-10 12,0 24,3 34,9l0 -50 0 -39c-22,-12 -48,-12 -70,0l0 39 0 51z"/>
  <path class="fil4 str3" d="M287 159c5,-4 7,-11 6,-19 -2,-11 -10,-18 -18,-16 -8,1 -13,10 -11,21 1,8 7,14 13,15 1,1 3,1 5,1 1,-1 3,-1 5,-2z"/>
  <path class="fil5 str4" d="M305 201c-2,-2 -4,-4 -5,-6 -7,-9 -12,-21 -13,-36 -2,1 -4,1 -5,2 -2,0 -4,0 -5,-1 3,19 9,34 19,45 1,2 3,4 5,6 8,7 17,13 28,16 6,2 13,4 20,5 0,-1 -1,-2 -1,-4 0,-3 2,-6 4,-8 -8,-1 -15,-2 -21,-4 -11,-3 -19,-8 -26,-15z"/>
  <path class="fil6 str5" d="M361 195c-14,0 -26,9 -30,21 6,2 13,3 21,4 2,-3 5,-4 9,-4 7,0 13,5 13,12 0,7 -6,13 -13,13 -6,0 -11,-4 -12,-9 -7,-1 -14,-3 -20,-5 0,18 14,32 32,32 18,0 32,-14 32,-32 0,-18 -14,-32 -32,-32z"/>
  <path class="fil2 str1" d="M361 216c-4,0 -7,1 -9,4 -2,2 -4,5 -4,8 0,2 1,3 1,4 1,5 6,9 12,9 7,0 13,-6 13,-13 0,-7 -6,-12 -13,-12z"/>
  <path class="fil7 str6" d="M292 277c0,-23 -18,-41 -41,-41 -23,0 -41,18 -41,41 0,23 18,41 41,41 23,0 41,-18 41,-41z"/>
 </g>
</svg>
